<svg id="Capa_1" enable-background="new 0 0 512 512" viewBox="0 0 512 512"
    xmlns="http://www.w3.org/2000/svg">
    <g>
        <path d="m405.425 349.664c-16.327-15.052-39.246-27.407-66.281-35.731h-83.144l-10 114.28 10 83.787c99.46 0 177.372-46.122 177.372-105 0-20.654-9.664-40.48-27.947-57.336z" fill="#ece6f2"/>
        <path d="m172.855 313.933c-27.035 8.324-49.954 20.679-66.281 35.73-18.282 16.856-27.946 36.683-27.946 57.337 0 58.878 77.911 105 177.372 105v-198.067z" fill="#fff5f5"/>
        <path d="m256 0-10 152.372 10 275.842 125.417-125.417c33.503-33.501 51.954-78.045 51.954-125.424.001-97.805-79.568-177.373-177.371-177.373z" fill="#4dc3ff"/>
        <path d="m78.628 177.372c0 47.381 18.453 91.926 51.958 125.427l125.414 125.414v-428.213c-97.803 0-177.372 79.568-177.372 177.372z" fill="#80d4ff"/>
        <path d="m349.601 83.771c-25.002-25.002-58.243-38.771-93.601-38.771l-10 107.372 10 157.372c35.358 0 68.599-13.769 93.601-38.771s38.771-58.243 38.771-93.601-13.769-68.599-38.771-93.601z" fill="#283d66"/>
        <path d="m162.399 83.771c-25.002 25.002-38.771 58.243-38.771 93.601s13.769 68.599 38.771 93.601 58.243 38.771 93.601 38.771v-264.744c-35.358 0-68.599 13.769-93.601 38.771z" fill="#4d628c"/>
        <path d="m358.372 177.372c0-56.539-45.834-102.372-102.372-102.372l-10 174.775h82.372c18.535-18.527 30-44.126 30-72.403z" fill="#ffb655"/>
        <path d="m153.628 177.372c0 28.277 11.465 53.876 30 72.403h72.372v-174.775c-56.538 0-102.372 45.833-102.372 102.372z" fill="#ffda44"/>
        <path d="m256 115.614-10 46.758 82.372 41.24v-36.758z" fill="#e50058"/>
        <path d="m183.628 166.854v36.758l72.372-41.24v-46.758z" fill="#ff4a4a"/>
        <path d="m256 152.372-10 63.686 10 63.686c28.261 0 53.847-11.452 72.372-29.968v-46.163z" fill="#ece6f2"/>
        <path d="m183.628 203.612v46.163c18.524 18.516 44.111 29.968 72.372 29.968v-127.371z" fill="#fff5f5"/>
    </g>
</svg>