<svg id="Capa_1" enable-background="new 0 0 512 512" viewBox="0 0 512 512"
    xmlns="http://www.w3.org/2000/svg">
    <g>
        <path d="m480.792 152.537c-.068-.002-.134-.01-.202-.01h-26.428-210.931v357.295c1.446 0 2.751-.797 3.482-2.044 4.41-7.515 12.571-12.561 21.913-12.561h211.964c.068 0 .134-.008.202-.01z" fill="#0078c8"/>
        <g>
            <path d="m480.59 152.527h-26.428-17.266c3.243 0 5.873 2.629 5.873 5.873v330.944c0 3.244-2.629 5.873-5.873 5.873h43.694c3.243 0 5.873-2.629 5.873-5.873 0-6.355 0-324.138 0-330.944-.001-3.244-2.63-5.873-5.873-5.873z" fill="#0268b4"/>
        </g>
        <path d="m445.339 133.105h-187.426c-8.109 0-14.682 6.573-14.682 14.682v315.891h2.381c2.619-4.019 7.146-6.682 12.301-6.682h187.426z" fill="#d5e3f4"/>
        <path d="m243.231 509.822v-29.801-16.343-311.151h-210.931-26.427c-3.244 0-5.873 2.63-5.873 5.873v151.617 38.741 140.585c0 3.243 2.629 5.873 5.873 5.873h211.963c9.343 0 17.503 5.047 21.913 12.561.732 1.247 2.037 2.045 3.482 2.045z" fill="#0268b4"/>
        <g>
            <path d="m410.037 188.097h-122.681c-4.72 0-8.546-3.826-8.546-8.546 0-4.72 3.826-8.546 8.546-8.546h122.681c4.72 0 8.546 3.826 8.546 8.546 0 4.72-3.826 8.546-8.546 8.546z" fill="#3e5959"/>
        </g>
        <g>
            <path d="m410.037 226.856h-122.681c-4.72 0-8.546-3.826-8.546-8.546 0-4.72 3.826-8.546 8.546-8.546h122.681c4.72 0 8.546 3.826 8.546 8.546 0 4.72-3.826 8.546-8.546 8.546z" fill="#3e5959"/>
        </g>
        <g>
            <path d="m410.037 304.374h-122.681c-4.72 0-8.546-3.826-8.546-8.546 0-4.72 3.826-8.546 8.546-8.546h122.681c4.72 0 8.546 3.826 8.546 8.546 0 4.72-3.826 8.546-8.546 8.546z" fill="#3e5959"/>
        </g>
        <path d="m400.351 426.431h-103.31c-4.405 0-7.976-3.571-7.976-7.976v-77.482c0-4.405 3.571-7.976 7.976-7.976h103.31c4.405 0 7.976 3.571 7.976 7.976v77.482c.001 4.405-3.57 7.976-7.976 7.976z" fill="#f47c7c"/>
        <path d="m240.851 463.678h2.381v-315.891c0-8.109-6.573-14.682-14.682-14.682h-189.398c-3.784 0-6.852 3.068-6.852 6.852v310.188c0 3.784 3.068 6.852 6.852 6.852h189.397c5.156-.001 9.682 2.662 12.302 6.681z" fill="#b3dafe"/>
        <path d="m152.553 300.902v56.972l33.836-23.828c3.223-2.269 3.223-7.047 0-9.316z" fill="#e5eef9"/>
        <g>
            <path d="m199.106 188.097h-122.68c-4.72 0-8.546-3.826-8.546-8.546 0-4.72 3.826-8.546 8.546-8.546h122.681c4.72 0 8.546 3.826 8.546 8.546-.001 4.72-3.827 8.546-8.547 8.546z" fill="#3e5959"/>
        </g>
        <g>
            <path d="m199.106 226.856h-122.68c-4.72 0-8.546-3.826-8.546-8.546 0-4.72 3.826-8.546 8.546-8.546h122.681c4.72 0 8.546 3.826 8.546 8.546-.001 4.72-3.827 8.546-8.547 8.546z" fill="#3e5959"/>
        </g>
        <g>
            <path d="m199.106 265.615h-122.68c-4.72 0-8.546-3.826-8.546-8.546 0-4.72 3.826-8.546 8.546-8.546h122.681c4.72 0 8.546 3.826 8.546 8.546-.001 4.72-3.827 8.546-8.547 8.546z" fill="#3e5959"/>
        </g>
        <g>
            <path d="m199.106 410.961h-122.68c-4.72 0-8.546-3.826-8.546-8.546 0-4.72 3.826-8.546 8.546-8.546h122.681c4.72 0 8.546 3.826 8.546 8.546-.001 4.72-3.827 8.546-8.547 8.546z" fill="#3e5959"/>
        </g>
        <path d="m391.906 248.523h-104.55c-4.72 0-8.546 3.826-8.546 8.546 0 4.72 3.826 8.546 8.546 8.546h104.55z" fill="#3e5959"/>
        <g>
            <path d="m391.907 40.357c-4.257 0-7.707-3.451-7.707-7.707v-22.765c0-4.256 3.451-7.707 7.707-7.707s7.707 3.451 7.707 7.707v22.765c0 4.257-3.45 7.707-7.707 7.707z" fill="#fea95c"/>
        </g>
        <g>
            <path d="m338.484 55.513c-1.972 0-3.945-.752-5.45-2.257l-16.097-16.097c-3.01-3.01-3.01-7.89 0-10.899 3.01-3.01 7.89-3.01 10.899 0l16.097 16.097c3.01 3.01 3.01 7.89 0 10.899-1.504 1.505-3.477 2.257-5.449 2.257z" fill="#fea95c"/>
        </g>
        <g>
            <path d="m445.33 55.513c-1.972 0-3.945-.752-5.45-2.257-3.01-3.01-3.01-7.89 0-10.899l16.097-16.097c3.01-3.01 7.89-3.01 10.899 0 3.01 3.01 3.01 7.89 0 10.899l-16.096 16.097c-1.505 1.505-3.477 2.257-5.45 2.257z" fill="#fea95c"/>
        </g>
        <g>
            <path d="m504.293 100.519h-22.765c-4.256 0-7.707-3.451-7.707-7.707s3.451-7.707 7.707-7.707h22.765c4.256 0 7.707 3.451 7.707 7.707s-3.451 7.707-7.707 7.707z" fill="#fea95c"/>
        </g>
        <g>
            <path d="m302.286 100.519h-22.765c-4.257 0-7.707-3.451-7.707-7.707s3.451-7.707 7.707-7.707h22.765c4.256 0 7.707 3.451 7.707 7.707s-3.45 7.707-7.707 7.707z" fill="#fea95c"/>
        </g>
        <g>
            <path d="m447.31 133.105h-34.955c3.784 0 6.852 3.068 6.852 6.852v310.188c0 3.784-3.068 6.851-6.852 6.851h34.955c3.784 0 6.852-3.068 6.852-6.851v-310.188c0-3.784-3.068-6.852-6.852-6.852z" fill="#b3dafe"/>
        </g>
        <path d="m363.204 213.038h57.405c3.741-11.135 9.94-21.282 18.13-29.702 12.051-12.388 19.231-29.536 18.432-48.364-1.432-33.734-28.959-61.141-62.699-62.433-37.247-1.426-67.891 28.347-67.891 65.276 0 17.71 7.053 33.765 18.499 45.527 8.189 8.416 14.383 18.562 18.122 29.693z" fill="#fdb97e"/>
        <path d="m363.204 213.038h57.405v23.508c0 15.852-12.851 28.703-28.703 28.703-15.852 0-28.703-12.851-28.703-28.703v-23.508z" fill="#678d98"/>
        <path d="m457.172 134.972c-1.432-33.734-28.959-61.141-62.699-62.433-5.921-.227-11.673.341-17.164 1.595 28.065 6.446 49.475 31.196 50.733 60.838.799 18.828-6.381 35.975-18.432 48.364-8.191 8.42-14.39 18.567-18.13 29.702h29.129c3.741-11.135 9.94-21.282 18.131-29.702 12.051-12.388 19.231-29.536 18.432-48.364z" fill="#fea95c"/>
        <path d="m391.48 213.038v23.508c0 10.534-5.678 19.738-14.138 24.731 4.27 2.52 9.247 3.972 14.565 3.972 15.852 0 28.703-12.851 28.703-28.703v-23.508z" fill="#537983"/>
        <path d="m152.553 300.902v56.972l33.836-23.828c3.223-2.269 3.223-7.047 0-9.316z" fill="#f9c6c6"/>
        <path d="m186.389 334.046c3.222-2.27 3.222-7.047 0-9.316l-33.836-23.828v26.216l21.837 15.378z" fill="#f9b1b1"/>
        <path d="m9.116 300.859c-5.034 0-9.116 4.081-9.116 9.116v26.26c0-5.034 4.081-9.116 9.116-9.116h36.33v-26.26z" fill="#e94444"/>
        <path d="m45.445 306.728h107.108v51.146h-107.108z" fill="#d83131"/>
        <path d="m0 315.843v32.915c0 5.034 4.081 9.116 9.116 9.116h36.33v-51.147h-36.33c-5.035.001-9.116 4.082-9.116 9.116z" fill="#f47c7c"/>
        <path d="m45.445 300.902h107.108v26.216h-107.108z" fill="#ca2c2c"/>
        <path d="m0 310.017v26.218c0-5.034 4.081-9.116 9.116-9.116h36.33v-26.218h-36.33c-5.035.001-9.116 4.082-9.116 9.116z" fill="#ee6161"/>
    </g>
</svg>