<svg width="54" height="40" viewBox="0 0 54 40" fill="none"
	xmlns="http://www.w3.org/2000/svg">
	<path d="M1.11331 3.24542C8.4331 9.44448 21.2771 20.3505 25.0521 23.751C25.5588 24.21 26.1024 24.4433 26.6666 24.4433C27.2298 24.4433 27.7724 24.2122 28.278 23.7554C32.0562 20.3516 44.9002 9.44448 52.2201 3.24542C52.6758 2.86021 52.7453 2.18312 52.3763 1.71219C51.5234 0.623958 50.2518 0 48.8888 0H4.44446C3.08165 0 1.80987 0.623959 0.957062 1.71229C0.588104 2.18313 0.657583 2.86021 1.11331 3.24542Z" fill="#17404E"/>
	<path d="M52.6889 6.60481C52.295 6.42148 51.8317 6.48543 51.504 6.76543C43.3865 13.6469 33.0263 22.4675 29.7667 25.4047C27.9372 27.0562 25.3981 27.0562 23.5644 25.4025C20.09 22.2721 8.45583 12.3817 1.82937 6.76533C1.49948 6.48533 1.0351 6.42356 0.644479 6.6047C0.251771 6.7871 0 7.17991 0 7.61283V35.5555C0 38.0068 1.99323 40 4.44448 40H48.889C51.3401 40 53.3333 38.0068 53.3333 35.5555V7.61283C53.3333 7.17991 53.0816 6.78606 52.6889 6.60481Z" fill="#17404E"/>
</svg>
