<svg xmlns="http://www.w3.org/2000/svg" width="50" height="50" fill="none" viewBox="0 0 50 50"><path fill="#17404E" d="M49.9875 50V49.9979H50V31.6604C50 22.6895 48.0687 15.7791 37.5812 15.7791C32.5396 15.7791 29.1562 18.5458 27.775 21.1687H27.6292V16.6166H17.6854V49.9979H28.0396V33.4687C28.0396 29.1166 28.8646 24.9083 34.2542 24.9083C39.5646 24.9083 39.6437 29.875 39.6437 33.7479V50H49.9875Z"/><path fill="#17404E" d="M0.824982 16.6187H11.1916V50H0.824982V16.6187Z"/><path fill="#17404E" d="M6.00416 0C2.68958 0 0 2.68958 0 6.00417C0 9.31875 2.68958 12.0646 6.00416 12.0646C9.31874 12.0646 12.0083 9.31875 12.0083 6.00417C12.0062 2.68958 9.31666 0 6.00416 0V0Z"/></svg>