<svg width="50" height="50" viewBox="0 0 50 50" fill="none"
	xmlns="http://www.w3.org/2000/svg">
	<path d="M48.5866 36.6949L41.6089 29.7173C39.1169 27.2253 34.8805 28.2222 33.8837 31.4617C33.1361 33.7046 30.6441 34.9506 28.4013 34.4521C23.4172 33.2061 16.6888 26.7269 15.4428 21.4936C14.6952 19.2507 16.1904 16.7587 18.4332 16.0112C21.6728 15.0144 22.6696 10.778 20.1776 8.28595L13.2 1.30831C11.2064 -0.436103 8.21594 -0.436103 6.47153 1.30831L1.7367 6.04314C-2.99813 11.0272 2.23511 24.2348 13.9476 35.9473C25.66 47.6598 38.8677 53.1423 43.8517 48.1582L48.5866 43.4234C50.3311 41.4297 50.3311 38.4393 48.5866 36.6949Z" fill="#17404E"/>
</svg>
