<svg id="Capa_1" enable-background="new 0 0 483.254 483.254" viewBox="0 0 483.254 483.254"
    xmlns="http://www.w3.org/2000/svg">
    <g>
        <g id="icon_8_">
            <path d="m63.46 61.037h356.335v401.814h-356.335z" fill="#dbd8dd"/>
            <path d="m141.299 0h200.651v462.846h-200.651z" fill="#eeefee"/>
            <path d="m79.525 79.342h45.774v54.018h-45.774z" fill="#69b0ee"/>
            <path d="m79.525 157.152h45.774v54.018h-45.774z" fill="#69b0ee"/>
            <path d="m79.525 234.956h45.774v54.018h-45.774z" fill="#69b0ee"/>
            <path d="m79.525 312.766h45.774v54.018h-45.774z" fill="#69b0ee"/>
            <path d="m79.525 390.57h45.774v54.018h-45.774z" fill="#69b0ee"/>
            <path d="m356.164 79.342h45.774v54.018h-45.774z" fill="#69b0ee"/>
            <path d="m356.164 157.152h45.774v54.018h-45.774z" fill="#69b0ee"/>
            <path d="m356.164 234.956h45.774v54.018h-45.774z" fill="#69b0ee"/>
            <path d="m356.164 312.766h45.774v54.018h-45.774z" fill="#69b0ee"/>
            <path d="m356.164 390.57h45.774v54.018h-45.774z" fill="#69b0ee"/>
            <path d="m161.878 22.913h159.492v29.797h-159.492z" fill="#69b0ee"/>
            <path d="m161.861 76.519h159.533v29.797h-159.533z" fill="#69b0ee"/>
            <path d="m161.861 130.155h159.533v29.797h-159.533z" fill="#69b0ee"/>
            <path d="m161.861 183.79h159.533v29.797h-159.533z" fill="#69b0ee"/>
            <path d="m161.861 237.425h159.533v29.797h-159.533z" fill="#69b0ee"/>
            <path d="m161.861 291.061h159.533v29.797h-159.533z" fill="#69b0ee"/>
            <path d="m170.418 344.472h142.424v118.374h-142.424z" fill="#575b6d"/>
            <g fill="#eeefee">
                <path d="m365.093 444.588h-1.715l19.283-54.018h1.721z" opacity=".5"/>
                <path d="m377.805 444.588h-9.989l19.283-54.018h9.989z" opacity=".5"/>
                <path d="m365.093 366.778h-1.715l19.283-54.012h1.721z" opacity=".5"/>
                <path d="m377.805 366.778h-9.989l19.283-54.012h9.989z" opacity=".5"/>
                <path d="m365.093 288.974h-1.715l19.283-54.018h1.721z" opacity=".5"/>
                <path d="m377.805 288.974h-9.989l19.283-54.018h9.989z" opacity=".5"/>
                <path d="m365.093 211.17h-1.715l19.283-54.018h1.721z" opacity=".5"/>
                <path d="m377.805 211.17h-9.989l19.283-54.018h9.989z" opacity=".5"/>
                <path d="m365.093 133.361h-1.715l19.283-54.019h1.721z" opacity=".5"/>
                <path d="m377.805 133.361h-9.989l19.283-54.019h9.989z" opacity=".5"/>
                <path d="m243.649 22.913-17.362 29.797h-5.398l17.261-29.797z" opacity=".5"/>
                <path d="m282.215 22.913-17.256 29.797h-27.198l17.262-29.797z" opacity=".5"/>
                <path d="m243.649 76.525-17.362 29.791h-5.398l17.261-29.791z" opacity=".5"/>
                <path d="m282.215 76.525-17.256 29.791h-27.198l17.262-29.791z" opacity=".5"/>
                <path d="m243.649 130.131-17.362 29.797h-5.398l17.261-29.797z" opacity=".5"/>
                <path d="m282.215 130.131-17.256 29.797h-27.198l17.262-29.797z" opacity=".5"/>
                <path d="m243.649 183.737-17.362 29.797h-5.398l17.261-29.797z" opacity=".5"/>
                <path d="m282.215 183.737-17.256 29.797h-27.198l17.262-29.797z" opacity=".5"/>
                <path d="m243.649 237.349-17.362 29.791h-5.398l17.261-29.791z" opacity=".5"/>
                <path d="m282.215 237.349-17.256 29.791h-27.198l17.262-29.791z" opacity=".5"/>
                <path d="m243.649 290.955-17.362 29.796h-5.398l17.261-29.796z" opacity=".5"/>
                <path d="m282.215 290.955-17.256 29.796h-27.198l17.262-29.796z" opacity=".5"/>
                <path d="m87.275 444.588h-1.715l19.283-54.018h1.72z" opacity=".5"/>
                <path d="m99.987 444.588h-9.99l19.283-54.018h9.99z" opacity=".5"/>
                <path d="m87.275 366.778h-1.715l19.283-54.012h1.72z" opacity=".5"/>
                <path d="m99.987 366.778h-9.99l19.283-54.012h9.99z" opacity=".5"/>
                <path d="m87.275 288.974h-1.715l19.283-54.018h1.72z" opacity=".5"/>
                <path d="m99.987 288.974h-9.99l19.283-54.018h9.99z" opacity=".5"/>
                <path d="m87.275 211.17h-1.715l19.283-54.018h1.72z" opacity=".5"/>
                <path d="m99.987 211.17h-9.99l19.283-54.018h9.99z" opacity=".5"/>
                <path d="m87.275 133.361h-1.715l19.283-54.019h1.72z" opacity=".5"/>
                <path d="m99.987 133.361h-9.99l19.283-54.019h9.99z" opacity=".5"/>
            </g>
            <path d="m42.314 458.379h398.626v24.876h-398.626z" fill="#bbbbcd"/>
            <path d="m234.184 339.775h14.887v118.444h-14.887z" fill="#eeefee"/>
        </g>
    </g>
</svg>